<?xml version="1.0" encoding="utf-8"?>
<!-- Generator: Adobe Illustrator 24.0.3, SVG Export Plug-In . SVG Version: 6.00 Build 0)  -->
<svg version="1.1" id="Livello_1" xmlns="http://www.w3.org/2000/svg" xmlns:xlink="http://www.w3.org/1999/xlink" x="0px" y="0px"
	 viewBox="0 0 66 82.5" style="enable-background:new 0 0 66 82.5;" xml:space="preserve">
<style type="text/css">
	.st0{fill-rule:evenodd;clip-rule:evenodd;}
</style>
<path class="st0" d="M56.1,52L56.1,52H53c-2.2,0-4-1.8-4-4V38h-8v18.1c2.3,0.5,4,2.5,4,4.9c0,2.8-2.2,5-5,5s-5-2.2-5-5
	c0-2.4,1.7-4.4,4-4.9V38H27v18.1c2.3,0.5,4,2.5,4,4.9c0,2.8-2.2,5-5,5s-5-2.2-5-5c0-2.4,1.7-4.4,4-4.9V38h-8v10c0,2.2-1.8,4-4,4H9.9
	c-0.5,2.3-2.5,4-4.9,4c-2.8,0-5-2.2-5-5s2.2-5,5-5c2.4,0,4.4,1.7,4.9,4H13c1.1,0,2-0.9,2-2V38h-2C5.8,38,0,32.2,0,25
	c0-6.7,5.1-12.3,11.7-12.9C13.9,5,20.4,0,28,0c6.9,0,12.9,4.1,15.6,10.2c0.8-0.2,1.6-0.2,2.4-0.2c5.9,0,10.9,4.3,11.9,10
	c4.6,0.4,8.1,4.3,8.1,9c0,5-4,9-9,9h-6v10c0,1.1,0.9,2,2,2h3.1c0.5-2.3,2.5-4,4.9-4c2.8,0,5,2.2,5,5s-2.2,5-5,5
	C58.6,56,56.6,54.3,56.1,52z M61,54c1.7,0,3-1.3,3-3s-1.3-3-3-3s-3,1.3-3,3S59.3,54,61,54z M5,54c1.7,0,3-1.3,3-3s-1.3-3-3-3
	s-3,1.3-3,3S3.3,54,5,54z M26,64c1.7,0,3-1.3,3-3s-1.3-3-3-3s-3,1.3-3,3S24.3,64,26,64z M40,64c1.7,0,3-1.3,3-3s-1.3-3-3-3
	s-3,1.3-3,3S38.3,64,40,64z M46,12c-0.9,0-1.8,0.1-2.7,0.4c-0.5,0.1-1-0.1-1.2-0.6C39.9,5.9,34.3,2,28,2c-6.9,0-12.8,4.7-14.5,11.3
	C13.4,13.7,13,14,12.5,14C6.7,14.2,2,19.1,2,25c0,6.1,4.9,11,11,11h44c3.9,0,7-3.1,7-7s-3.1-7-7-7c-0.5,0-0.9-0.4-1-0.9
	C55.5,16,51.2,12,46,12z"/>
</svg>
